<svg width="797" height="515" viewBox="0 0 797 515" fill="none" xmlns="http://www.w3.org/2000/svg">
<g clip-path="url(#clip0_1_224)">
<path d="M483.713 514.303C619.998 514.303 730.479 482.686 730.479 443.684C730.479 404.682 619.998 373.065 483.713 373.065C347.428 373.065 236.947 404.682 236.947 443.684C236.947 482.686 347.428 514.303 483.713 514.303Z" fill="#F5F5F5"/>
<path d="M718.494 168.97C718.494 168.97 674.781 212.753 699.457 277.723C724.134 342.692 657.155 450.739 657.155 450.739C657.155 450.739 657.86 450.633 659.206 450.4C748.987 434.525 793.595 331.676 743.671 255.273C725.135 226.87 709.871 193.545 718.494 168.97Z" fill="#2091F9"/>
<path d="M718.494 168.97C718.494 168.97 693.817 222.64 718.494 266.424C743.17 310.207 722.724 433.084 657.155 450.739" stroke="#535461" stroke-width="2" stroke-miterlimit="10"/>
<path d="M796.345 346.061C796.345 346.061 746.463 338.102 741.915 382.881C737.368 427.661 646.029 433.861 646.029 433.861C646.029 433.861 646.621 434.271 647.742 435.005C723.182 484.608 795.301 466.6 784.437 400.734C780.369 376.25 780.693 351.654 796.345 346.061Z" fill="#2091F9"/>
<path opacity="0.2" d="M796.345 346.061C796.345 346.061 746.463 338.102 741.915 382.881C737.368 427.661 646.029 433.861 646.029 433.861C646.029 433.861 646.621 434.271 647.742 435.005C723.182 484.608 795.301 466.6 784.437 400.734C780.369 376.25 780.693 351.654 796.345 346.061Z" fill="#F5F5F5"/>
<path d="M796.345 346.061C796.345 346.061 757.624 354.577 760.803 389.844C763.983 425.111 703.279 467.37 646.001 433.847" stroke="#535461" stroke-width="2" stroke-miterlimit="10"/>
<path opacity="0.2" d="M226.244 0.359615C220.561 0.161882 214.738 0.359615 209.408 2.35107C194.905 7.76754 188.031 25.4858 190.266 40.8313C192.501 56.1768 201.694 69.5026 211.234 81.7126C220.773 93.9227 231.109 105.977 236.34 120.553C238.949 127.834 240.169 135.99 237.518 143.257C233.429 154.464 221.097 160.728 209.26 162.028C197.422 163.327 185.535 160.792 173.655 159.909C168.67 159.556 163.544 159.514 158.849 161.152C153.695 162.939 149.401 166.583 145.453 170.382C130.048 185.282 117.716 205.621 119.712 226.976C121.968 251.184 142.09 270.322 164.129 280.583C171.427 283.987 179.147 286.741 185.57 291.599C202.491 304.41 206.291 328.413 204.606 349.606C202.921 370.798 197.182 392.012 200.376 413.021C204.134 437.456 220.766 459.524 243.2 469.834C263.189 479.015 288.204 478.443 305.95 465.456C314.601 459.1 321.143 450.336 326.833 441.248C335.421 427.536 342.389 412.872 347.597 397.549C350.071 390.268 352.398 382.436 358.172 377.373C361.698 374.259 366.266 372.514 370.786 371.159C384.407 367.077 398.755 365.954 412.503 362.324C426.252 358.694 440.085 351.929 447.558 339.832C458.134 322.664 453.199 300.709 453.248 280.512C453.333 234.497 480.822 193.298 490.968 148.455C494.282 133.794 495.516 117.573 488.113 104.501C483.079 95.5822 474.597 89.2265 465.678 84.2832C446.078 73.3796 423.798 68.5281 401.878 63.8037C371.413 57.2502 334.419 56.4028 310.807 35.203C288.147 14.8647 257.146 0.359615 226.244 0.359615Z" fill="#2091F9"/>
<g opacity="0.5">
<path opacity="0.5" d="M336.753 178.468C336.752 167.376 335.017 156.354 331.613 145.799L323.153 119.522C323.153 119.084 323.153 118.653 323.153 118.223C323.414 101.38 310.307 92.9764 305.259 93.8874C300.091 94.8196 285.75 87.6165 285.75 87.6165V87.8142C284.767 86.6805 283.88 85.4663 283.099 84.1844C285.577 82.3769 287.669 80.0915 289.252 77.4626C290.835 74.8337 291.878 71.9143 292.319 68.876C292.76 65.8377 292.59 62.7418 291.819 59.7703C291.048 56.7988 289.692 54.0116 287.83 51.5726C289.38 50.406 290.562 48.8175 291.235 46.9964C292.406 43.6985 291.51 39.9345 289.607 36.9968C288.797 35.7704 287.851 34.6403 286.786 33.6283C285.174 32.0282 283.413 30.5857 281.527 29.3205C276.824 26.0579 271.656 23.2544 266.016 22.2586C265.04 22.0278 264.024 22.0278 263.048 22.2586C262.2 22.601 261.394 23.0368 260.643 23.558C256.78 25.7613 251.971 24.808 247.515 24.5749C243.059 24.3419 237.645 25.5918 236.235 29.7796C235.797 31.0719 235.826 32.4701 235.53 33.7978C234.825 37.0462 232.322 39.5673 230.39 42.272C228.458 44.9767 227.013 48.6277 228.62 51.5655C229.17 52.5542 230.03 53.4651 230.03 54.5951C230.03 55.4072 229.551 56.1345 229.325 56.9114C228.839 58.6768 229.755 60.4423 231.165 61.7205C231.773 62.3766 232.488 62.9236 233.28 63.3377C235.515 64.4817 238.089 64.8348 240.366 65.8941C241.503 66.4288 242.546 67.1442 243.454 68.0127C244.567 69.1796 245.437 70.5567 246.013 72.0637C246.589 73.5708 246.86 75.1776 246.81 76.7906L247.283 76.84C247.283 76.9813 247.283 77.1154 247.283 77.2567C247.776 77.3132 248.298 77.3626 248.813 77.3838C249.553 78.5809 250.4 79.7084 251.344 80.7523C251.184 81.3549 251.003 81.967 250.801 82.5884C249.144 83.7395 235.593 92.7787 220.181 90.6036C203.732 88.2803 194.327 160.312 194.327 160.312C193.717 164.431 193.42 168.59 193.438 172.755C193.368 183.348 195.589 197.21 207.962 195.169L214.54 193.001V228.628C214.54 228.628 215.478 238.388 212.192 244.871C208.907 251.354 222.536 249.051 222.536 249.051C222.536 249.051 223.057 249.595 224.016 250.52L223.713 251.375L224.115 251.784C222.322 257.922 219.906 263.859 216.902 269.503L217.29 269.7C217.043 270.174 216.902 270.407 216.902 270.407C216.902 270.407 221.964 272.998 228.93 276.339C234.528 295.293 246.782 339.189 242.749 347.551L242.862 347.791C243.616 349.359 247.833 358.603 246.98 367.07C246.211 374.64 256.674 409.039 260.58 421.531L258.733 421.905L265.311 445.605L263.901 460.944C263.901 460.944 255.912 482.32 274.709 478.139C293.506 473.959 288.338 456.763 288.338 456.763L288.81 421.905C288.81 421.905 286.998 420.895 284.763 419.928C283.226 415.769 279.877 405.938 279.877 399.138C279.877 390.31 273.764 352.197 273.764 352.197V352.12V351.971V351.929L273.729 351.421V351.336C273.729 350.863 273.651 350.213 273.595 349.422V349.38C272.89 339.076 270.775 304.071 272.319 285.823C273.677 284.895 275.089 284.051 276.549 283.295C281.125 294.876 292.92 326.167 292.166 339.295C291.228 355.538 291.933 342.784 292.166 340.708C292.236 340.065 292.286 340.842 292.307 342.586C292.307 342.904 292.307 343.257 292.307 343.631C292.307 344.006 292.307 344.422 292.307 344.853C292.307 345.284 292.307 345.75 292.307 346.265C292.307 346.51 292.307 346.76 292.307 347.014C292.307 347.522 292.307 348.054 292.307 348.61C292.307 348.888 292.307 349.17 292.307 349.457C292.307 350.87 292.307 352.438 292.258 354.069C292.258 354.394 292.258 354.723 292.258 355.057C292.258 356.053 292.258 357.07 292.208 358.101C292.208 359.514 292.152 360.884 292.124 362.303C292.053 365.481 291.962 368.694 291.849 371.702C291.849 372.037 291.837 372.369 291.813 372.698C291.79 373.357 291.764 374.002 291.736 374.633C291.708 375.264 291.679 375.881 291.651 376.483C291.623 377.081 291.593 377.663 291.56 378.228C291.524 378.891 291.482 379.527 291.447 380.134L288.895 379.767L288.352 385.643C287.496 394.971 288.7 404.373 291.877 413.184C292.751 415.599 293.428 417.598 293.576 418.311C294.048 420.634 293.576 437.378 293.576 437.378C293.576 437.378 296.396 459.22 309.559 455.033C315.482 453.147 318.358 447.413 319.733 441.665C321.259 435.001 320.69 428.028 318.105 421.701C316.236 416.997 314.326 410.402 315.672 405.303C318.02 396.475 318.02 383.926 318.02 383.926L316.568 383.722C316.93 383.032 317.257 382.325 317.548 381.603C317.548 381.603 317.075 349.535 321.306 345.354C323.632 343.052 323.421 337.523 322.716 333.003C321.708 326.462 321.472 319.826 322.011 313.23C322.3 309.833 322.716 306.874 323.202 305.822C324.443 303.364 325.684 278.591 320.192 266.671L321.32 266.318L321.143 265.442L321.32 265.386C322.148 267.6 323.089 269.771 324.14 271.89C324.417 272.107 324.736 272.266 325.078 272.356C340.3 269.679 340.913 255.449 340.067 247.681C340.708 247.992 341.061 248.19 341.061 248.19L342.471 227.71C343.916 224.441 344.452 220.267 344.417 215.755C344.48 199.625 336.753 178.468 336.753 178.468ZM319.973 236.679C318.93 227.76 317.484 219.363 317.484 219.363L310.434 194.265V185.127L321.616 226.934L319.973 236.679Z" fill="url(#paint0_linear_1_224)"/>
</g>
<path d="M288.274 373.771L287.752 379.513C286.929 388.635 288.096 397.828 291.172 406.454C292.011 408.82 292.667 410.769 292.808 411.468C293.259 413.742 292.808 430.09 292.808 430.09C292.808 430.09 295.529 451.438 308.227 447.349C313.938 445.513 316.688 439.899 318.041 434.285C319.509 427.774 318.958 420.969 316.462 414.78C314.657 410.183 312.81 403.721 314.114 398.756C316.384 390.127 316.384 377.867 316.384 377.867L288.274 373.771Z" fill="#5A5773"/>
<path d="M274.674 275.216C274.674 275.216 292.356 318.364 291.447 334.253C290.537 350.142 291.221 337.657 291.447 335.616C291.849 331.979 291.447 375.163 290.086 380.106C290.086 380.106 308.678 393.728 315.933 375.565C315.933 375.565 315.482 344.232 319.557 340.143C321.799 337.897 321.581 332.488 320.918 328.074C319.94 321.689 319.703 315.213 320.213 308.774C320.488 305.455 320.868 302.531 321.362 301.535C322.723 298.81 324.083 267.928 315.919 259.298L274.674 275.216Z" fill="#605D82"/>
<path opacity="0.1" d="M292.356 380.127C293.717 375.134 294.119 331.979 293.717 335.637C293.491 337.678 292.808 350.171 293.717 334.274C294.627 318.378 276.944 275.237 276.944 275.237L316.504 259.997C316.321 259.764 316.131 259.545 315.94 259.341L274.681 275.237C274.681 275.237 292.363 318.385 291.454 334.274C290.544 350.164 291.228 337.678 291.454 335.637C291.856 332 291.454 375.184 290.093 380.127C290.093 380.127 297.517 385.565 304.815 384.986C298.321 384.499 292.356 380.127 292.356 380.127Z" fill="black"/>
<path d="M259.254 415.098L265.6 438.261L264.239 453.246C264.239 453.246 256.533 474.135 274.667 470.046C292.801 465.957 287.816 449.157 287.816 449.157L288.267 415.098C288.267 415.098 281.012 411.009 277.839 411.468C274.667 411.927 259.254 415.098 259.254 415.098Z" fill="#5A5773"/>
<path d="M227.971 264.319C227.971 264.319 248.827 331.986 243.842 342.431C243.842 342.431 248.827 352.423 247.924 361.498C247.022 370.573 262.434 419.172 262.434 419.172L285.108 415.084C285.108 415.084 279.665 401.461 279.665 392.832C279.665 384.202 273.771 346.929 273.771 346.929C273.771 346.929 268.787 278.803 274.681 271.537L227.971 264.319Z" fill="#605D82"/>
<g opacity="0.1">
<path opacity="0.1" d="M272.918 277.073C269.16 292.496 273.313 349.253 273.313 349.253C273.313 349.253 279.207 386.49 279.207 395.155C279.207 401.744 282.373 411.235 283.875 415.359L285.101 415.14C285.101 415.14 279.658 401.518 279.658 392.888C279.658 384.259 273.764 346.986 273.764 346.986C273.764 346.986 269.971 295.116 272.918 277.073Z" fill="black"/>
<path opacity="0.1" d="M243.842 342.431L243.955 342.664C243.99 342.431 244.025 342.184 244.047 341.958C243.986 342.119 243.918 342.277 243.842 342.431Z" fill="black"/>
<path opacity="0.1" d="M273.651 273.768C273.857 272.985 274.204 272.245 274.674 271.586L227.971 264.319C227.971 264.319 228.246 265.202 228.719 266.777L273.651 273.768Z" fill="black"/>
</g>
<path d="M336.788 239.793C336.788 239.793 343.592 265.216 323.188 268.86C322.857 268.774 322.547 268.62 322.278 268.408C322.278 268.408 310.49 245.245 319.557 236.163L336.788 239.793Z" fill="#FAC3CA"/>
<path d="M253.36 70.8657C253.36 70.8657 254.721 89.9328 239.76 99.0214C224.799 108.11 271.487 133.081 271.487 133.081L295.973 94.0216C295.973 94.0216 285.553 95.3704 279.207 77.2214L253.36 70.8657Z" fill="#FAC3CA"/>
<path opacity="0.1" d="M243.384 100.37C243.384 100.37 266.509 148.511 287.365 103.096L319.557 262.949C319.557 262.949 269.675 278.394 269.231 285.66C268.787 292.927 218.912 267.045 218.912 267.045C218.912 267.045 229.79 247.06 227.076 234.801C224.362 222.541 243.384 100.37 243.384 100.37Z" fill="black"/>
<path d="M243.384 99.4593C243.384 99.4593 266.509 147.6 287.365 102.185L319.557 262.045C319.557 262.045 269.675 277.49 269.231 284.756C268.787 292.023 218.912 266.134 218.912 266.134C218.912 266.134 229.79 246.149 227.076 233.889C224.362 221.63 243.384 99.4593 243.384 99.4593Z" fill="#E1E7EF"/>
<path d="M266.058 427.816C266.058 427.816 260.164 414.646 273.764 414.646C287.365 414.646 285.101 426.453 285.101 426.453L266.058 427.816Z" fill="#5A5773"/>
<path d="M296.89 393.75C296.89 393.75 291.447 379.668 305.054 379.216C318.662 378.764 311.858 391.928 311.858 391.928L296.89 393.75Z" fill="#5A5773"/>
<path opacity="0.1" d="M285.327 89.2266C285.327 89.2266 299.153 96.2885 304.145 95.3563C309.136 94.4241 322.279 103.075 321.376 120.334L329.569 146.082C332.846 156.406 334.511 167.175 334.504 178.009C334.504 178.009 346.292 210.705 339.947 225.239L338.586 245.224C338.586 245.224 328.159 239.32 317.273 241.135L320.015 224.815L307.748 178.482L287.343 128.978L285.327 89.2266Z" fill="black"/>
<path d="M285.327 88.3297C285.327 88.3297 299.153 95.3916 304.145 94.4594C309.136 93.5273 322.279 102.178 321.376 119.437L329.569 145.185C332.846 155.509 334.511 166.278 334.504 177.112C334.504 177.112 346.292 209.808 339.947 224.342L338.586 244.327C338.586 244.327 328.159 238.423 317.273 240.238L319.994 223.89L307.748 177.571L287.365 128.067L285.327 88.3297Z" fill="#67647E"/>
<path opacity="0.1" d="M308.227 143.511V194.83L315.031 219.356C315.031 219.356 319.564 246.149 318.203 254.327C316.843 262.504 295.078 264.319 289.184 257.504C283.289 250.69 286.462 192.535 286.462 192.535L285.327 107.404L286.237 104.678L308.227 143.511Z" fill="black"/>
<path d="M309.158 141.245V192.563L315.961 217.089C315.961 217.089 320.495 243.882 319.134 252.06C317.773 260.237 296.008 262.052 290.114 255.238C284.22 248.423 287.393 190.268 287.393 190.268L286.258 105.116L309.158 141.245Z" fill="#67647E"/>
<path opacity="0.1" d="M217.769 183.934L232.279 229.13L225.476 248.43C225.476 248.43 257.668 282.489 278.072 266.141C278.072 266.141 280.342 196.652 275.802 180.304C271.261 163.956 249.504 108.979 249.504 108.979L244.998 94.4666L220.97 108.089L217.769 183.934Z" fill="black"/>
<path d="M216.634 181.66V226.15C216.634 226.15 217.544 235.69 214.364 242.046C211.184 248.402 224.34 246.135 224.34 246.135C224.34 246.135 256.533 280.194 276.937 263.846C276.937 263.846 279.207 194.357 274.667 178.009C270.126 161.66 248.368 106.684 248.368 106.684L243.835 92.1502L219.807 105.773L216.634 181.66Z" fill="#67647E"/>
<path opacity="0.1" d="M251.774 84.2479C251.774 84.2479 237.948 94.4665 222.077 92.1926C206.207 89.9186 197.14 160.319 197.14 160.319C197.14 160.319 191.246 196.652 210.289 193.474L252.458 179.393C252.458 179.393 243.391 169.852 244.752 157.593L224.34 165.763L225.257 126.711L251.774 84.2479Z" fill="black"/>
<path opacity="0.1" d="M198.042 159.408C198.042 159.408 192.148 195.741 211.191 192.563L253.36 178.482C253.36 178.482 244.293 168.948 245.654 156.682L225.257 164.86L198.042 159.408Z" fill="black"/>
<path d="M244.653 161.47C244.653 161.47 258.803 142.833 269.224 151.781C279.644 160.728 248.39 177.126 248.39 177.126L244.653 161.47Z" fill="#FAC3CA"/>
<path d="M251.774 83.337C251.774 83.337 237.948 93.5556 222.077 91.2817C206.207 89.0077 197.14 159.408 197.14 159.408C197.14 159.408 191.246 195.741 210.289 192.563L252.458 178.482C252.458 178.482 243.391 168.941 244.752 156.682L224.34 164.86L225.257 125.8L248.383 106.733L251.774 83.337Z" fill="#67647E"/>
<path opacity="0.1" d="M279.658 78.1112L253.811 71.7555C253.811 71.7555 255.158 73.2809 253.586 79.2482C257.746 84.0291 262.857 90.3777 269.682 90.3777C274.566 90.3869 279.321 88.8084 283.233 85.8793C281.773 83.4224 280.575 80.8188 279.658 78.1112Z" fill="black"/>
<path d="M269.231 89.4738C281.753 89.4738 291.905 79.3057 291.905 66.7628C291.905 54.2198 281.753 44.0517 269.231 44.0517C256.708 44.0517 246.556 54.2198 246.556 66.7628C246.556 79.3057 256.708 89.4738 269.231 89.4738Z" fill="#FAC3CA"/>
<path opacity="0.1" d="M277.825 56.9043C283.085 56.0075 288.866 53.67 290.629 48.6278C291.757 45.4005 290.897 41.7283 289.057 38.8541C287.217 35.9799 284.509 33.7696 281.717 31.7922C277.184 28.6003 272.185 25.8602 266.728 24.8998C265.787 24.6745 264.806 24.6745 263.865 24.8998C263.047 25.2353 262.269 25.6617 261.546 26.171C257.816 28.3248 253.177 27.3927 248.855 27.1667C244.533 26.9407 239.351 28.1624 237.99 32.2513C237.567 33.5153 237.595 34.8783 237.285 36.1777C236.58 39.3555 234.19 41.8272 232.35 44.4754C230.51 47.1236 229.093 50.704 230.644 53.557C231.172 54.5245 232.054 55.4143 232.054 56.5159C231.918 57.2989 231.681 58.0609 231.349 58.7828C230.707 61.1273 232.575 63.4931 234.733 64.6089C236.89 65.7246 239.372 66.0707 241.572 67.1088C243.631 68.1264 245.355 69.7149 246.538 71.6854C247.722 73.6559 248.315 75.9255 248.249 78.2242C250.251 78.4572 252.585 78.5773 253.938 77.0802C254.545 76.4093 254.841 75.5124 255.391 74.7992C256.096 73.867 257.196 73.3162 258.098 72.5676C262.843 68.6624 259.473 63.2671 262.159 59.0582C263.569 56.8902 265.811 57.554 268.082 57.5893C271.344 57.6658 274.606 57.4364 277.825 56.9043Z" fill="black"/>
<path d="M277.374 56.4524C282.634 55.5555 288.415 53.218 290.178 48.1758C291.306 44.9485 290.446 41.2764 288.606 38.4022C286.765 35.528 284.058 33.3176 281.266 31.3403C276.733 28.1483 271.734 25.4083 266.277 24.4479C265.336 24.2225 264.355 24.2225 263.414 24.4479C262.596 24.7833 261.818 25.2097 261.095 25.719C257.365 27.8729 252.726 26.9407 248.404 26.7147C244.082 26.4888 238.9 27.7105 237.539 31.7993C237.116 33.0634 237.144 34.4263 236.834 35.7257C236.129 38.9036 233.739 41.3752 231.899 44.0234C230.058 46.6716 228.641 50.252 230.192 53.105C230.721 54.0725 231.602 54.9623 231.602 56.064C231.466 56.847 231.229 57.609 230.897 58.3308C230.256 60.6754 232.124 63.0411 234.282 64.1569C236.439 65.2727 238.921 65.6187 241.121 66.6568C243.188 67.6734 244.919 69.2651 246.107 71.2413C247.295 73.2176 247.889 75.4948 247.819 77.8005C249.821 78.0335 252.155 78.1536 253.508 76.6564C254.115 75.9856 254.411 75.0887 254.961 74.3755C255.666 73.4433 256.766 72.8925 257.668 72.1439C262.413 68.2387 259.043 62.8434 261.729 58.6345C263.139 56.4665 265.381 57.1303 267.652 57.1656C270.907 57.2314 274.162 56.9926 277.374 56.4524Z" fill="#4A4347"/>
<path opacity="0.1" d="M304.822 132.841C304.822 132.841 309.806 158.73 307.543 168.722C306.16 174.535 306.365 180.614 308.135 186.321" fill="black"/>
<path opacity="0.1" d="M224.242 143.737C224.242 143.737 222.07 160.997 225.687 164.626L224.242 143.737Z" fill="black"/>
<path d="M350.847 356.435C351.127 356.435 351.396 356.323 351.595 356.124C351.793 355.926 351.905 355.656 351.905 355.375C351.905 355.094 351.793 354.825 351.595 354.626C351.396 354.428 351.127 354.316 350.847 354.316C350.567 354.316 350.298 354.428 350.099 354.626C349.901 354.825 349.789 355.094 349.789 355.375C349.789 355.656 349.901 355.926 350.099 356.124C350.298 356.323 350.567 356.435 350.847 356.435Z" fill="black"/>
<g opacity="0.5">
<path opacity="0.5" d="M676.487 233.028V232.442L484.122 84.2833C484.001 84.1932 483.854 84.1447 483.702 84.1447C483.551 84.1447 483.404 84.1932 483.283 84.2833L290.911 232.442V462.095H291.278V462.462H676.861V232.809L676.487 233.028Z" fill="url(#paint1_linear_1_224)"/>
</g>
<path d="M669.845 455.689H297.581V233.946L483.713 90.5895L669.845 233.946V455.689Z" fill="white"/>
<path d="M656.45 442.547H310.977V236.764L483.713 103.725L656.45 236.764V442.547Z" fill="#E0E0E0"/>
<path d="M542.314 100.65L331.576 155.986L401.842 424.447L612.58 369.11L542.314 100.65Z" fill="#2091F9"/>
<path d="M593.7 141.435H375.841V418.968H593.7V141.435Z" fill="#F5F5F5"/>
<path opacity="0.05" d="M299.343 234.299L485.476 345.171L299.343 456.043V234.299Z" fill="black"/>
<path d="M297.933 234.299L484.066 345.171L297.933 456.043V234.299Z" fill="white"/>
<path opacity="0.05" d="M668.788 234.299L482.656 345.171L668.788 456.043V234.299Z" fill="black"/>
<path d="M670.198 234.299L484.066 345.171L670.198 456.043V234.299Z" fill="white"/>
<path opacity="0.05" d="M297.933 452.512L484.066 307.037L670.198 452.512H297.933Z" fill="black"/>
<path d="M297.933 456.043L484.066 310.568L670.198 456.043H297.933Z" fill="white"/>
<path d="M335.759 472.885C335.759 472.885 326.41 441.107 337.515 417.704C342.233 407.921 343.655 396.869 341.569 386.207C340.539 381.155 339.05 376.207 337.12 371.427" stroke="#535461" stroke-width="2" stroke-miterlimit="10"/>
<path d="M344.022 356.639C344.022 360.537 336.972 371.829 336.972 371.829C336.972 371.829 329.921 360.53 329.921 356.639C329.921 354.766 330.664 352.97 331.986 351.646C333.308 350.321 335.102 349.577 336.972 349.577C338.842 349.577 340.635 350.321 341.957 351.646C343.279 352.97 344.022 354.766 344.022 356.639Z" fill="#6C63FF"/>
<path d="M355.691 378.221C353.575 381.49 341.533 387.14 341.533 387.14C341.533 387.14 341.752 373.821 343.867 370.551C344.921 369.072 346.505 368.058 348.287 367.718C350.069 367.378 351.914 367.74 353.437 368.728C354.96 369.716 356.044 371.254 356.464 373.022C356.883 374.79 356.607 376.652 355.691 378.221Z" fill="#6C63FF"/>
<path d="M355.155 415.091C351.679 416.842 338.438 415.634 338.438 415.634C338.438 415.634 345.341 404.251 348.809 402.499C349.64 402.034 350.555 401.742 351.501 401.64C352.447 401.539 353.404 401.63 354.313 401.909C355.223 402.188 356.067 402.648 356.795 403.262C357.522 403.876 358.118 404.631 358.547 405.481C358.975 406.332 359.227 407.261 359.288 408.212C359.349 409.163 359.217 410.116 358.9 411.015C358.583 411.913 358.088 412.738 357.444 413.44C356.8 414.141 356.022 414.705 355.155 415.098V415.091Z" fill="#6C63FF"/>
<path d="M348.499 442.907C345.369 445.224 332.114 446.269 332.114 446.269C332.114 446.269 336.993 433.882 340.123 431.566C341.629 430.56 343.465 430.172 345.248 430.484C347.032 430.796 348.628 431.783 349.704 433.241C350.781 434.699 351.257 436.516 351.032 438.316C350.808 440.115 349.901 441.759 348.499 442.907Z" fill="#6C63FF"/>
<path d="M326.72 387.888C329.54 390.6 342.506 393.418 342.506 393.418C342.506 393.418 339.327 380.487 336.535 377.776C335.176 376.573 333.408 375.941 331.597 376.01C329.786 376.079 328.071 376.844 326.808 378.146C325.545 379.449 324.831 381.188 324.815 383.003C324.799 384.819 325.481 386.57 326.72 387.895V387.888Z" fill="#6C63FF"/>
<path d="M319.346 420.521C322.821 422.273 336.062 421.065 336.062 421.065C336.062 421.065 329.16 409.681 325.691 407.93C324.035 407.18 322.153 407.1 320.439 407.707C318.726 408.313 317.312 409.559 316.493 411.185C315.674 412.81 315.514 414.689 316.046 416.43C316.577 418.171 317.759 419.639 319.346 420.528V420.521Z" fill="#6C63FF"/>
<path d="M316.525 453.218C319.656 455.534 332.911 456.579 332.911 456.579C332.911 456.579 328.032 444.193 324.901 441.876C324.162 441.271 323.308 440.823 322.391 440.558C321.473 440.293 320.512 440.217 319.565 440.336C318.617 440.454 317.704 440.764 316.88 441.247C316.055 441.73 315.338 442.375 314.77 443.144C314.202 443.912 313.796 444.789 313.577 445.719C313.357 446.65 313.329 447.615 313.493 448.557C313.657 449.499 314.01 450.398 314.532 451.199C315.053 452 315.731 452.687 316.525 453.218Z" fill="#6C63FF"/>
<path opacity="0.5" d="M475.958 154.147H388.532V161.209H475.958V154.147Z" fill="#6C63FF"/>
<path opacity="0.5" d="M577.484 182.394H388.532V189.456H577.484V182.394Z" fill="#6C63FF"/>
<path opacity="0.5" d="M577.484 200.755H388.532V207.817H577.484V200.755Z" fill="#6C63FF"/>
<path opacity="0.4" d="M577.484 219.116H388.532V226.178H577.484V219.116Z" fill="#6C63FF"/>
<path opacity="0.4" d="M577.484 237.477H388.532V244.539H577.484V237.477Z" fill="#6C63FF"/>
<path opacity="0.3" d="M496.404 255.838H388.532V262.9H496.404V255.838Z" fill="#6C63FF"/>
<path opacity="0.3" d="M535.887 274.199H388.532V281.261H535.887V274.199Z" fill="#6C63FF"/>
</g>
<defs>
<linearGradient id="paint0_linear_1_224" x1="193.445" y1="250.421" x2="344.339" y2="250.421" gradientUnits="userSpaceOnUse">
<stop stop-color="#808080" stop-opacity="0.25"/>
<stop offset="0.54" stop-color="#808080" stop-opacity="0.12"/>
<stop offset="1" stop-color="#808080" stop-opacity="0.1"/>
</linearGradient>
<linearGradient id="paint1_linear_1_224" x1="246075" y1="280247" x2="246075" y2="77563.5" gradientUnits="userSpaceOnUse">
<stop stop-color="#808080" stop-opacity="0.25"/>
<stop offset="0.54" stop-color="#808080" stop-opacity="0.12"/>
<stop offset="1" stop-color="#808080" stop-opacity="0.1"/>
</linearGradient>
<clipPath id="clip0_1_224">
<rect width="677" height="514" fill="white" transform="translate(119.5 0.303223)"/>
</clipPath>
</defs>
</svg>
